<svg xmlns="http://www.w3.org/2000/svg" xmlns:svg="http://www.w3.org/2000/svg" id="svg8" width="26" height="62" version="1.1" viewBox="0 0 6.879 16.404"><metadata id="metadata5"/><g id="layer1"><path style="fill:#183bb1;stroke:none;stroke-width:.208894;stroke-linecap:round" id="circle851" d="m 3.4220132,4.2901791 a 2.8722976,2.8722976 0 0 0 -2.85460598,2.8721761 2.8722976,2.8722976 0 0 0 0,0.017053 v 0.2557984 5.7696734 0.818038 a 2.8937693,1.7992926 0 0 0 -0.0217041,0.218592 2.8937693,1.7992926 0 0 0 0.0217041,0.218591 v 0.08837 h 0.0211873 a 2.8937693,1.7992926 0 0 0 2.12028408,1.434021 2.8722976,2.8722976 0 0 0 0.7307048,0.09509 2.8722976,2.8722976 0 0 0 0.7353554,-0.0956 2.8937693,1.7992926 0 0 0 2.1161499,-1.433505 h 0.020671 v -0.0894 a 2.8937693,1.7992926 0 0 0 0.021704,-0.217557 2.8937693,1.7992926 0 0 0 -0.021704,-0.218592 v -0.77773 a 2.8722976,2.8722976 0 0 0 0,-0.04031 v -0.01757 -6.024955 a 2.8722976,2.8722976 0 0 0 0,-0.025321 2.8722976,2.8722976 0 0 0 -2.8721759,-2.8468547 2.8722976,2.8722976 0 0 0 -0.01757,0 z"/><path style="fill:#002082;stroke:none;stroke-width:.208894;stroke-linecap:round;fill-opacity:1" id="path864" d="M 3.4220404,4.2807723 A 2.8722976,2.8722976 0 0 0 0.99690633,5.6422576 2.8722976,2.8722976 0 0 0 3.4395834,7.003743 2.8722976,2.8722976 0 0 0 5.8822603,5.6422576 2.8722976,2.8722976 0 0 0 3.4395834,4.2807723 a 2.8722976,2.8722976 0 0 0 -0.017547,0 z"/><path id="path1709" d="m 3.4220132,4.2901791 a 2.8722976,2.8722976 0 0 0 -2.85460601,2.8721761 2.8722976,2.8722976 0 0 0 0,0.017053 v 0.2557984 5.7696734 0.818038 a 2.8937693,1.7992926 0 0 0 -0.0217041,0.218592 2.8937693,1.7992926 0 0 0 0.0217041,0.218591 v 0.08837 h 0.0211873 a 2.8937693,1.7992926 0 0 0 2.12028401,1.434021 2.8722976,2.8722976 0 0 0 0.7307049,0.09509 2.8722976,2.8722976 0 0 0 0.7353553,-0.0956 2.8937693,1.7992926 0 0 0 2.11615,-1.433505 h 0.02067 v -0.0894 a 2.8937693,1.7992926 0 0 0 0.021704,-0.217557 2.8937693,1.7992926 0 0 0 -0.021704,-0.218592 v -0.77773 a 2.8722976,2.8722976 0 0 0 0,-0.04031 v -0.01757 -6.024955 a 2.8722976,2.8722976 0 0 0 0,-0.025321 2.8722976,2.8722976 0 0 0 -2.8721758,-2.8468547 2.8722976,2.8722976 0 0 0 -0.01757,0 z" style="fill:none;stroke:#ced8f7;stroke-width:.26458334;stroke-linecap:round;stroke-miterlimit:4;stroke-dasharray:none"/><circle id="path847" cx="3.44" cy="3.199" r="2.872" style="fill:#183bb1;stroke:#ced8f7;stroke-width:.26458334;stroke-linecap:round;stroke-miterlimit:4;stroke-dasharray:none"/><path style="fill:none;stroke:#3a5ee2;stroke-width:2.00000003;stroke-linecap:round;stroke-miterlimit:4;stroke-dasharray:none" id="path1515" d="M 20.703443 19.739324 A 10.855928 10.855928 0 0 1 13 22.946191 A 10.855928 10.855928 0 0 1 5.1377129 19.575957" transform="scale(0.26458333)"/><path style="fill:#3a5ee2;fill-opacity:1;stroke:none;stroke-width:.999999;stroke-linecap:round;stroke-miterlimit:4;stroke-dasharray:none" id="path1518" d="M 11.31232 4.4971949 A 6.8802246 6.8802246 0 0 1 14.192777 3.8652067 A 6.8802246 6.8802246 0 0 1 21.073002 10.745432 L 21.073002 10.745432 A 6.8802246 6.8802246 0 0 1 20.860595 12.441808" transform="scale(0.26458334)"/></g></svg>